<?xml version="1.0" encoding="UTF-8" standalone="no"?><svg width="100%" height="100%" viewBox="0 0 64 64" version="1.1" xmlns="http://www.w3.org/2000/svg" xmlns:xlink="http://www.w3.org/1999/xlink" xml:space="preserve" xmlns:serif="http://www.serif.com/" style="fill-rule:evenodd;clip-rule:evenodd;stroke-linejoin:round;stroke-miterlimit:2;"><path d="M58.521,6.706c2.393,0.356 2.575,0.958 3.181,1.609c1.684,1.809 2.026,4.308 0.298,6.685c-13.173,18.118 -18.911,30.316 -27.757,46.901c-2.009,2.422 -5.816,2.551 -7.975,0.213c-5.823,-7.693 -10.951,-10.499 -16.655,-18.015c-0.154,-0.204 -0.232,-0.455 -0.346,-0.685c-2.074,-4.198 4.208,-10.973 8.733,-5.414l12.208,12.271c3.41,-9.665 15.194,-28.686 23.853,-41.86c1.165,-1.234 1.999,-1.912 4.46,-1.705Z" style="fill:#fff;"/></svg>